<mxfile host="app.diagrams.net" modified="2024-02-14T13:46:59.578Z" agent="Mozilla/5.0 (Windows NT 10.0; Win64; x64) AppleWebKit/537.36 (KHTML, like Gecko) Chrome/121.0.0.0 Safari/537.36" etag="8Op9mkKlZOaYchGTY4V9" version="23.1.4" type="onedrive">
  <diagram name="Page-1" id="np83zCqFxTpGFOV7-6W5">
    <mxGraphModel grid="1" page="1" gridSize="10" guides="1" tooltips="1" connect="1" arrows="1" fold="1" pageScale="1" pageWidth="827" pageHeight="1169" math="0" shadow="0">
      <root>
        <mxCell id="0" />
        <mxCell id="1" parent="0" />
        <mxCell id="pgh_E2yWtvySmqAxtsDK-25" style="edgeStyle=orthogonalEdgeStyle;rounded=0;orthogonalLoop=1;jettySize=auto;html=1;exitX=0.5;exitY=0.5;exitDx=0;exitDy=0;exitPerimeter=0;entryX=0;entryY=0.5;entryDx=0;entryDy=0;" edge="1" parent="1" source="pgh_E2yWtvySmqAxtsDK-23" target="pgh_E2yWtvySmqAxtsDK-24">
          <mxGeometry relative="1" as="geometry" />
        </mxCell>
        <mxCell id="pgh_E2yWtvySmqAxtsDK-36" style="edgeStyle=orthogonalEdgeStyle;rounded=0;orthogonalLoop=1;jettySize=auto;html=1;exitX=0.5;exitY=0.5;exitDx=0;exitDy=0;exitPerimeter=0;entryX=0;entryY=0.5;entryDx=0;entryDy=0;" edge="1" parent="1" source="pgh_E2yWtvySmqAxtsDK-23" target="pgh_E2yWtvySmqAxtsDK-35">
          <mxGeometry relative="1" as="geometry" />
        </mxCell>
        <mxCell id="pgh_E2yWtvySmqAxtsDK-38" style="edgeStyle=orthogonalEdgeStyle;rounded=0;orthogonalLoop=1;jettySize=auto;html=1;exitX=0.5;exitY=0.5;exitDx=0;exitDy=0;exitPerimeter=0;entryX=0;entryY=0.5;entryDx=0;entryDy=0;" edge="1" parent="1" source="pgh_E2yWtvySmqAxtsDK-23" target="pgh_E2yWtvySmqAxtsDK-37">
          <mxGeometry relative="1" as="geometry" />
        </mxCell>
        <mxCell id="pgh_E2yWtvySmqAxtsDK-23" value="User" style="shape=umlActor;verticalLabelPosition=bottom;verticalAlign=top;html=1;outlineConnect=0;" vertex="1" parent="1">
          <mxGeometry x="80" y="190" width="30" height="60" as="geometry" />
        </mxCell>
        <mxCell id="pgh_E2yWtvySmqAxtsDK-24" value="Enter Continent&lt;br&gt;And Input N" style="ellipse;whiteSpace=wrap;html=1;" vertex="1" parent="1">
          <mxGeometry x="190" y="160" width="120" height="40" as="geometry" />
        </mxCell>
        <mxCell id="pgh_E2yWtvySmqAxtsDK-26" style="edgeStyle=orthogonalEdgeStyle;rounded=0;orthogonalLoop=1;jettySize=auto;html=1;exitX=1;exitY=0.5;exitDx=0;exitDy=0;entryX=0;entryY=0.5;entryDx=0;entryDy=0;dashed=1;" edge="1" parent="1" source="pgh_E2yWtvySmqAxtsDK-24" target="pgh_E2yWtvySmqAxtsDK-30">
          <mxGeometry relative="1" as="geometry">
            <mxPoint x="310" y="185" as="sourcePoint" />
          </mxGeometry>
        </mxCell>
        <mxCell id="pgh_E2yWtvySmqAxtsDK-27" style="edgeStyle=orthogonalEdgeStyle;rounded=0;orthogonalLoop=1;jettySize=auto;html=1;exitX=1;exitY=0.5;exitDx=0;exitDy=0;dashed=1;" edge="1" parent="1" source="pgh_E2yWtvySmqAxtsDK-24" target="pgh_E2yWtvySmqAxtsDK-29">
          <mxGeometry relative="1" as="geometry">
            <mxPoint x="310" y="185" as="sourcePoint" />
          </mxGeometry>
        </mxCell>
        <mxCell id="pgh_E2yWtvySmqAxtsDK-28" style="edgeStyle=orthogonalEdgeStyle;rounded=0;orthogonalLoop=1;jettySize=auto;html=1;exitX=0;exitY=0.5;exitDx=0;exitDy=0;entryX=1;entryY=0.5;entryDx=0;entryDy=0;dashed=1;" edge="1" parent="1" source="pgh_E2yWtvySmqAxtsDK-29" target="pgh_E2yWtvySmqAxtsDK-35">
          <mxGeometry relative="1" as="geometry">
            <mxPoint x="310" y="265" as="targetPoint" />
          </mxGeometry>
        </mxCell>
        <mxCell id="pgh_E2yWtvySmqAxtsDK-29" value="Finds Continent in SQL Database and Finds the top N populated Countries in Continent" style="ellipse;whiteSpace=wrap;html=1;" vertex="1" parent="1">
          <mxGeometry x="400" y="215" width="200" height="80" as="geometry" />
        </mxCell>
        <mxCell id="pgh_E2yWtvySmqAxtsDK-30" value="Download SQL Database" style="ellipse;whiteSpace=wrap;html=1;" vertex="1" parent="1">
          <mxGeometry x="400" y="120" width="130" height="50" as="geometry" />
        </mxCell>
        <mxCell id="pgh_E2yWtvySmqAxtsDK-31" value="&amp;lt;&amp;lt;includes&amp;gt;&amp;gt;" style="text;html=1;strokeColor=none;fillColor=none;align=center;verticalAlign=middle;whiteSpace=wrap;rounded=0;" vertex="1" parent="1">
          <mxGeometry x="290" y="120" width="120" height="20" as="geometry" />
        </mxCell>
        <mxCell id="pgh_E2yWtvySmqAxtsDK-32" value="&amp;lt;&amp;lt;includes&amp;gt;&amp;gt;" style="text;html=1;strokeColor=none;fillColor=none;align=center;verticalAlign=middle;whiteSpace=wrap;rounded=0;" vertex="1" parent="1">
          <mxGeometry x="340" y="180" width="120" height="20" as="geometry" />
        </mxCell>
        <mxCell id="pgh_E2yWtvySmqAxtsDK-33" value="&amp;lt;&amp;lt;includes&amp;gt;&amp;gt;" style="text;html=1;strokeColor=none;fillColor=none;align=center;verticalAlign=middle;whiteSpace=wrap;rounded=0;" vertex="1" parent="1">
          <mxGeometry x="300" y="230" width="120" height="20" as="geometry" />
        </mxCell>
        <mxCell id="pgh_E2yWtvySmqAxtsDK-35" value="Look at SQL Database" style="ellipse;whiteSpace=wrap;html=1;" vertex="1" parent="1">
          <mxGeometry x="190" y="230" width="130" height="50" as="geometry" />
        </mxCell>
        <mxCell id="pgh_E2yWtvySmqAxtsDK-37" value="Login&amp;nbsp;" style="ellipse;whiteSpace=wrap;html=1;" vertex="1" parent="1">
          <mxGeometry x="190" y="290" width="130" height="50" as="geometry" />
        </mxCell>
        <mxCell id="pgh_E2yWtvySmqAxtsDK-42" style="edgeStyle=orthogonalEdgeStyle;rounded=0;orthogonalLoop=1;jettySize=auto;html=1;exitX=0.5;exitY=0.5;exitDx=0;exitDy=0;exitPerimeter=0;" edge="1" parent="1" source="pgh_E2yWtvySmqAxtsDK-39" target="pgh_E2yWtvySmqAxtsDK-41">
          <mxGeometry relative="1" as="geometry" />
        </mxCell>
        <mxCell id="pgh_E2yWtvySmqAxtsDK-48" style="edgeStyle=orthogonalEdgeStyle;rounded=0;orthogonalLoop=1;jettySize=auto;html=1;exitX=0.5;exitY=0.5;exitDx=0;exitDy=0;exitPerimeter=0;" edge="1" parent="1" source="pgh_E2yWtvySmqAxtsDK-39" target="pgh_E2yWtvySmqAxtsDK-46">
          <mxGeometry relative="1" as="geometry" />
        </mxCell>
        <mxCell id="cnUv61VlSGcVh3cJfpl0-1" style="edgeStyle=orthogonalEdgeStyle;rounded=0;orthogonalLoop=1;jettySize=auto;html=1;exitX=0.5;exitY=0.5;exitDx=0;exitDy=0;exitPerimeter=0;entryX=0;entryY=0.5;entryDx=0;entryDy=0;" edge="1" parent="1" source="pgh_E2yWtvySmqAxtsDK-39" target="pgh_E2yWtvySmqAxtsDK-37">
          <mxGeometry relative="1" as="geometry" />
        </mxCell>
        <mxCell id="pgh_E2yWtvySmqAxtsDK-39" value="Admin" style="shape=umlActor;verticalLabelPosition=bottom;verticalAlign=top;html=1;outlineConnect=0;" vertex="1" parent="1">
          <mxGeometry x="80" y="400" width="30" height="60" as="geometry" />
        </mxCell>
        <mxCell id="pgh_E2yWtvySmqAxtsDK-41" value="Add User" style="ellipse;whiteSpace=wrap;html=1;" vertex="1" parent="1">
          <mxGeometry x="190" y="405" width="140" height="50" as="geometry" />
        </mxCell>
        <mxCell id="pgh_E2yWtvySmqAxtsDK-44" style="edgeStyle=orthogonalEdgeStyle;rounded=0;orthogonalLoop=1;jettySize=auto;html=1;exitX=0;exitY=0.5;exitDx=0;exitDy=0;entryX=1;entryY=0.5;entryDx=0;entryDy=0;dashed=1;" edge="1" parent="1" source="pgh_E2yWtvySmqAxtsDK-43" target="pgh_E2yWtvySmqAxtsDK-41">
          <mxGeometry relative="1" as="geometry" />
        </mxCell>
        <mxCell id="pgh_E2yWtvySmqAxtsDK-43" value="Add Client to company" style="ellipse;whiteSpace=wrap;html=1;" vertex="1" parent="1">
          <mxGeometry x="410" y="405" width="140" height="50" as="geometry" />
        </mxCell>
        <mxCell id="pgh_E2yWtvySmqAxtsDK-45" value="&amp;lt;&amp;lt;extend&amp;gt;&amp;gt;" style="text;html=1;strokeColor=none;fillColor=none;align=center;verticalAlign=middle;whiteSpace=wrap;rounded=0;" vertex="1" parent="1">
          <mxGeometry x="310" y="410" width="120" height="20" as="geometry" />
        </mxCell>
        <mxCell id="pgh_E2yWtvySmqAxtsDK-46" value="Upload to SQL Data" style="ellipse;whiteSpace=wrap;html=1;" vertex="1" parent="1">
          <mxGeometry x="190" y="350" width="130" height="50" as="geometry" />
        </mxCell>
        <mxCell id="pgh_E2yWtvySmqAxtsDK-50" style="edgeStyle=orthogonalEdgeStyle;rounded=0;orthogonalLoop=1;jettySize=auto;html=1;exitX=0;exitY=0.5;exitDx=0;exitDy=0;entryX=1;entryY=0.5;entryDx=0;entryDy=0;dashed=1;" edge="1" parent="1" source="pgh_E2yWtvySmqAxtsDK-49" target="pgh_E2yWtvySmqAxtsDK-46">
          <mxGeometry relative="1" as="geometry" />
        </mxCell>
        <mxCell id="pgh_E2yWtvySmqAxtsDK-49" value="Manage Data" style="ellipse;whiteSpace=wrap;html=1;" vertex="1" parent="1">
          <mxGeometry x="414" y="350" width="140" height="50" as="geometry" />
        </mxCell>
        <mxCell id="pgh_E2yWtvySmqAxtsDK-51" value="&amp;lt;&amp;lt;extend&amp;gt;&amp;gt;" style="text;html=1;strokeColor=none;fillColor=none;align=center;verticalAlign=middle;whiteSpace=wrap;rounded=0;" vertex="1" parent="1">
          <mxGeometry x="310" y="350" width="120" height="20" as="geometry" />
        </mxCell>
      </root>
    </mxGraphModel>
  </diagram>
</mxfile>
